<svg width="16" height="20" viewBox="0 0 16 20" fill="none" xmlns="http://www.w3.org/2000/svg">
<path d="M11.0928 17.0971L5.9913 19.7865L6.10134 17.6816C4.70391 17.3418 3.42707 16.6231 2.39897 15.5951C0.905445 14.1044 0.0830078 12.1177 0.0830078 9.99987C0.0830078 8.90807 0.302504 7.84862 0.735285 6.85093L0.819368 6.65762L2.692 7.47086L2.60844 7.6641C2.28816 8.40433 2.12574 9.19032 2.12574 9.99987C2.12574 11.5682 2.73641 13.0425 3.84514 14.1507C4.5116 14.8174 5.32531 15.313 6.21126 15.5936L6.29839 13.9487L11.6233 16.815L11.0928 17.0971ZM15.2549 13.1483L15.1711 13.3416L13.2982 12.5284L13.3823 12.3351C13.7023 11.5975 13.8647 10.812 13.8647 9.99981C13.8647 8.43146 13.254 6.95728 12.1453 5.84849C11.4757 5.18127 10.662 4.68573 9.77921 4.40559L9.69203 6.05046L4.36283 3.18371L4.90155 2.90152L5.90622 2.36948L9.99918 0.213135L9.8892 2.31499C11.2879 2.6573 12.5647 3.37749 13.5914 4.40401C15.0875 5.9004 15.91 7.88759 15.9075 9.99975C15.9075 11.0937 15.688 12.1532 15.2549 13.1483Z" fill="#107EFF"/>
</svg>
